<svg height="445pt" viewBox="0 0 445 445.5946" width="445pt" xmlns="http://www.w3.org/2000/svg"><path d="m154.964844 278.238281-104 104c-3.503906 3.503907-3.503906 9.1875 0 12.691407 3.503906 3.503906 9.183594 3.503906 12.6875 0l104-104c1.683594-1.683594 2.632812-3.964844 2.632812-6.34375 0-2.382813-.949218-4.664063-2.632812-6.347657-3.546875-3.394531-9.140625-3.394531-12.6875 0zm0 0"/><path d="m423.46875 0-48.367188 34.550781-7.203124 21.527344c-.390626 1.179687-1.054688 2.25-1.933594 3.128906l-126.320313 126.34375 20.6875 20.6875 126.34375-126.34375c.882813-.871093 1.953125-1.53125 3.128907-1.925781l21.527343-7.199219 34.550781-48.371093zm0 0"/><path d="m222.675781 191.207031-22.34375-22.34375-16.113281 16.113281c-1.371094 21.261719-15.496094 39.570313-35.71875 46.289063l-7.6875 2.558594c-5.363281 1.792969-10.234375 4.804687-14.234375 8.800781l-110.398437 110.398438c-21.175782 21.175781-21.175782 55.511718 0 76.6875 21.175781 21.179687 55.511718 21.179687 76.6875 0l110.402343-110.398438c3.992188-4.003906 7.003907-8.878906 8.796875-14.242188l2.570313-7.6875c6.722656-20.214843 25.027343-34.34375 46.289062-35.71875l16.09375-16.113281zm-43.710937 111.03125-104 104c-9.757813 9.742188-25.554688 9.742188-35.3125 0-9.730469-9.757812-9.730469-25.550781 0-35.308593l104-104c9.886718-9.425782 25.429687-9.425782 35.320312 0 9.746094 9.75 9.746094 25.558593 0 35.308593zm0 0"/></svg>
